<svg id="Layer_1" data-name="Layer 1" xmlns="http://www.w3.org/2000/svg" viewBox="0 0 332.8 461.35"><defs><style>.cls-1,.cls-4{fill:#724a16;}.cls-2{fill:#d69050;}.cls-3{fill:#fff;}.cls-4{font-size:120px;font-family:BrushScriptMT, Brush Script MT;}</style></defs><title>and_rue logo_transparentbackground</title><path class="cls-1" d="M312.75,441.45c0-14.6-.09-29.19.07-43.79a6.3,6.3,0,0,0-3.41-6.23c-41.65-26.23-68-63.29-77-111.81a165.52,165.52,0,0,1,125.2-192c92.13-21.35,181.2,35.68,201.19,128.08,14.3,66.08-15.4,137.2-72.7,173.28-5.29,3.33-7.34,6.64-7.22,13,.49,26.26.41,52.54.34,78.81-.05,18.56-8.58,33-22.87,44.16-19.68,15.35-42.49,20.64-67,19.35-19.09-1-36.83-6.43-52.27-18-16.52-12.4-25.53-28.47-24.46-49.75C313.23,464.83,312.75,453.13,312.75,441.45Z" transform="translate(-229.6 -83.1)"/><path class="cls-2" d="M333.37,433c0-16-.08-32,.06-47.94,0-3-.79-4.62-3.52-6.08-45.2-24.1-72.11-61.57-78.37-112.31a144.16,144.16,0,0,1,115.91-159.8C420.32,96.89,466,112,503,151.05c23.11,24.44,36.16,54.07,37.76,87.85,3,63.06-24.06,109.66-79.06,140.24-2.3,1.28-3.28,2.59-3.27,5.29.1,30.73-.2,61.47.2,92.2.2,15.1-5.76,26.35-18.12,34.52-16.37,10.81-34.58,13.77-53.72,12.05-14.64-1.32-28.21-5.77-39.78-15.26-9.25-7.58-13.9-17.23-13.76-29.3.18-15.21,0-30.43,0-45.64Z" transform="translate(-229.6 -83.1)"/><path class="cls-3" d="M287.07,199.63a78.74,78.74,0,0,1,9.69-25.57c9.08-15.07,21.48-26.27,38-32.61,4.57-1.75,8-.59,9.22,2.9,1.15,3.16-.73,6.08-5.09,7.92-21.34,9-34.31,25-39.93,47.29-.22.89-.54,1.76-.7,2.67-.62,3.47-2.9,5-6.18,4.89S287,204.37,287.07,199.63Z" transform="translate(-229.6 -83.1)"/><path class="cls-3" d="M296.4,221.89c-.12,4.51-2.94,7.22-7.25,7s-6.82-3.18-6.65-7.7c.16-4.33,3.3-7.4,7.31-7.14S296.51,217.41,296.4,221.89Z" transform="translate(-229.6 -83.1)"/><text class="cls-4" transform="translate(202.06 415.25) rotate(-90)">M</text></svg>